HIERARCHY
ROOT Hips
{
	OFFSET -3.958830 18.904000 13.208200
	CHANNELS 6 Xposition Yposition Zposition Zrotation Yrotation Xrotation 
	JOINT LHipJoint
	{
		OFFSET 0.000000 0.000000 0.000000
		CHANNELS 3 Zrotation Yrotation Xrotation
		JOINT LeftUpLeg
		{
			OFFSET 1.800000 -1.400000 0.085000
			CHANNELS 3 Zrotation Yrotation Xrotation
			JOINT LeftLeg
			{
				OFFSET 2.215000 -6.000000 0.000000
				CHANNELS 3 Zrotation Yrotation Xrotation
				JOINT LeftFoot
				{
					OFFSET 2.500000 -6.900000 0.000000
					CHANNELS 3 Zrotation Yrotation Xrotation
					JOINT LeftToeBase
					{
						OFFSET 0.200000 -0.500000 1.950000
						CHANNELS 3 Zrotation Yrotation Xrotation
						End Site
						{
							OFFSET 0.000000 0.000000 0.000000
						}
					}
				}
			}
		}
	}
	JOINT RHipJoint
	{
		OFFSET 0.000000 0.000000 0.000000
		CHANNELS 3 Zrotation Yrotation Xrotation
		JOINT RightUpLeg
		{
			OFFSET -1.800000 -1.400000 0.085000
			CHANNELS 3 Zrotation Yrotation Xrotation
			JOINT RightLeg
			{
				OFFSET -2.215000 -6.000000 0.000000
				CHANNELS 3 Zrotation Yrotation Xrotation
				JOINT RightFoot
				{
					OFFSET -2.500000 -6.900000 0.000000
					CHANNELS 3 Zrotation Yrotation Xrotation
					JOINT RightToeBase
					{
						OFFSET -0.200000 -0.500000 1.950000
						CHANNELS 3 Zrotation Yrotation Xrotation
						End Site
						{
							OFFSET 0.000000 0.000000 0.000000
						}
					}
				}
			}
		}
	}
	JOINT LowerBack
	{
		OFFSET 0.000000 0.000000 0.000000
		CHANNELS 3 Zrotation Yrotation Xrotation
		JOINT Spine
		{
			OFFSET -0.087000 1.940000 -0.288900
			CHANNELS 3 Zrotation Yrotation Xrotation
			JOINT Spine1
			{
				OFFSET 0.000000 1.950000 0.060000
				CHANNELS 3 Zrotation Yrotation Xrotation
				JOINT Neck
				{
					OFFSET 0.000000 0.000000 0.000000
					CHANNELS 3 Zrotation Yrotation Xrotation
					JOINT Neck1
					{
						OFFSET 0.000000 1.600000 0.340000
						CHANNELS 3 Zrotation Yrotation Xrotation
						JOINT Head
						{
							OFFSET 0.000000 1.667000 -0.240000
							CHANNELS 3 Zrotation Yrotation Xrotation
							End Site
							{
								OFFSET 0.000000 0.000000 0.000000
							}
						}
					}
				}
				JOINT LeftShoulder
				{
					OFFSET 0.000000 0.000000 0.000000
					CHANNELS 3 Zrotation Yrotation Xrotation
					JOINT LeftArm
					{
						OFFSET 2.700000 1.550000 -0.730000
						CHANNELS 3 Zrotation Yrotation Xrotation
						JOINT LeftForeArm
						{
							OFFSET 5.450000 0.000000 0.000000
							CHANNELS 3 Zrotation Yrotation Xrotation
							JOINT LeftHand
							{
								OFFSET 3.450000 0.000000 0.000000
								CHANNELS 3 Zrotation Yrotation Xrotation
								JOINT LeftHandIndex1
								{
									OFFSET 0.750000 0.000000 0.000000
									CHANNELS 3 Zrotation Yrotation Xrotation
									End Site
									{
										OFFSET 0.000000 0.000000 0.000000
									}
								}
							}
						}
					}
				}
				JOINT RightShoulder
				{
					OFFSET 0.000000 0.000000 0.000000
					CHANNELS 3 Zrotation Yrotation Xrotation
					JOINT RightArm
					{
						OFFSET -2.700000 1.550000 -0.730000
						CHANNELS 3 Zrotation Yrotation Xrotation
						JOINT RightForeArm
						{
							OFFSET -5.450000 0.000000 0.000000
							CHANNELS 3 Zrotation Yrotation Xrotation
							JOINT RightHand
							{
								OFFSET -3.450000 0.000000 0.000000
								CHANNELS 3 Zrotation Yrotation Xrotation
								JOINT RightHandIndex1
								{
									OFFSET -0.750000 0.000000 0.000000
									CHANNELS 3 Zrotation Yrotation Xrotation
									End Site
									{
										OFFSET 0.000000 0.000000 0.000000
									}
								}
							}
						}
					}
				}
			}
		}
	}
}
MOTION
Frames: 9
Frame Time: 0.016667
6.269460 16.790770 -2.816140 3.595795 33.086321 -8.687927 -15.051640 11.888089 3.365125 9.090376 -0.982781 -7.843466 -24.939219 19.329483 33.626754 0.718711 10.108524 1.254546 0.243010 -0.216460 0.193230 18.405336 -11.344803 3.231227 2.120971 1.083018 -5.495578 12.038604 -6.455230 11.302235 -0.600435 -4.335444 2.862803 -0.117240 0.477830 0.556710 -4.977422 1.829456 -8.567023 20.292517 -2.511815 24.488085 -6.569489 2.312711 14.021506 0.977473 5.503472 -19.133440 12.404675 -11.199330 33.852315 -0.129950 -9.010930 -10.928700 4.262254 -20.614546 13.311323 -7.016829 15.308887 -1.335494 10.836336 -2.340303 -0.951518 -4.295784 2.403255 0.781990 0.177420 0.104230 0.224040 -7.985643 22.128538 11.362150 27.933262 19.382466 -13.682689 10.305280 77.065607 -1.367988 1.559103 -1.828666 -0.252040 0.190920 0.126500 -0.078570 
6.214940 16.862060 -2.827550 3.359358 30.523661 -7.099168 -15.001359 11.949839 3.196303 6.888665 -0.822020 -7.822502 -22.328815 17.216994 31.782619 0.515662 9.302591 1.543411 0.238960 -0.214570 0.183490 18.446230 -11.462303 3.314410 2.277083 0.947608 -6.345301 11.501562 -5.952158 9.066796 -0.531535 -4.178662 2.938199 -0.098470 0.533090 0.567050 -4.998710 1.993056 -8.439307 19.341089 -1.797147 22.765127 -5.812089 1.983374 13.416106 1.215994 5.466565 -18.032908 12.251333 -9.638521 32.292483 -1.558520 -7.278080 -9.307130 4.775635 -18.226202 12.024890 -8.002865 14.469988 -1.590347 11.067265 -2.983856 -0.953394 -4.355689 2.428167 0.723630 0.243770 0.059140 0.246100 -8.791259 19.657374 10.821321 29.206287 19.915897 -12.050841 5.723241 78.142156 -4.326885 1.581621 -1.790195 -0.263640 0.191560 0.117710 -0.069730 
6.152760 16.926000 -2.837720 3.011954 28.290986 -5.338770 -14.947312 11.977799 3.054077 4.868441 -0.741757 -8.079459 -19.784262 15.048755 29.493646 0.284474 8.445031 1.846116 0.197310 -0.256640 0.135130 18.491976 -11.574104 3.394739 2.355658 0.953686 -7.534640 11.106012 -5.512397 7.064763 -0.442624 -4.057080 2.994076 -0.096360 0.610970 0.587550 -5.049773 2.194150 -8.320633 18.629849 -1.224414 20.806661 -5.296237 1.695269 12.585417 1.290584 5.389951 -17.055311 11.955836 -8.383110 30.692710 -2.946920 -5.981210 -7.049550 4.955538 -15.880104 10.761480 -8.050567 13.491965 -1.550482 10.637829 -3.347138 -0.984988 -4.463147 2.432268 0.650510 0.330090 -0.012250 0.251820 -9.041915 17.262798 10.374423 30.715916 20.248637 -10.584149 0.156913 78.543136 -7.959792 1.570686 -1.742997 -0.280820 0.183390 0.149640 -0.059160 
6.084290 16.999350 -2.856940 2.411397 26.085165 -4.386196 -14.899942 12.017501 2.949947 3.560501 -0.650727 -8.054571 -17.690102 13.303533 27.358317 0.116462 7.713090 2.119296 0.177290 -0.268170 0.105480 18.529600 -11.637203 3.471266 2.112692 0.905869 -8.023102 11.127335 -5.198752 5.177155 -0.401826 -4.008192 3.034451 -0.091060 0.666420 0.592810 -5.087865 2.286221 -8.249065 18.631434 -1.066969 20.005530 -5.234987 1.592306 11.720960 1.248413 5.101931 -16.326558 11.287048 -7.171201 29.798769 -3.458100 -4.927740 -5.895600 4.959243 -13.962817 9.720194 -8.279954 12.814679 -1.587608 10.641928 -3.512705 -0.969681 -4.524027 2.430717 0.603130 0.383120 -0.050800 0.268750 -8.958485 15.564844 10.129498 31.821225 20.044497 -10.058664 -6.452538 78.461618 -12.425186 1.550139 -1.663509 -0.291370 0.191450 0.153790 -0.043630 
6.017020 17.072290 -2.882510 1.767678 24.017266 -3.616309 -14.868900 12.083383 2.883711 2.608748 -0.577783 -7.992799 -15.900513 11.732787 25.002103 -0.053041 7.040933 2.385607 0.148640 -0.283010 0.068540 18.546486 -11.661225 3.534629 1.635219 0.878152 -8.395790 11.119163 -4.914112 3.454655 -0.366921 -3.974357 3.085532 -0.082240 0.727850 0.577060 -5.081121 2.258629 -8.202403 18.823229 -1.072356 19.622540 -5.274782 1.534783 10.682143 1.279175 4.677950 -15.748835 10.365557 -6.114781 29.164293 -4.230740 -3.918510 -5.144230 4.568489 -12.351377 8.825172 -8.300861 12.315299 -1.536092 10.791728 -3.456924 -0.937090 -4.576233 2.390870 0.578180 0.433090 -0.086940 0.291430 -8.693377 14.338210 9.978360 32.301777 19.374887 -9.924656 -12.537749 78.197337 -16.387527 1.509596 -1.559441 -0.327020 0.231870 0.160190 -0.034150 
5.948210 17.144120 -2.909970 1.175934 21.972169 -3.090600 -14.852390 12.178213 2.839298 1.818414 -0.501079 -7.681153 -14.070416 10.262878 22.573204 -0.180391 6.405550 2.618898 0.124650 -0.316820 0.054980 18.546627 -11.652076 3.590480 0.937104 0.846453 -8.602582 10.886877 -4.622296 1.738662 -0.355483 -3.928530 3.103159 -0.108140 0.744490 0.593220 -5.034720 2.116303 -8.185530 18.793879 -1.028486 19.560739 -5.032908 1.556630 9.795748 1.136966 4.285221 -15.541699 9.579860 -5.255682 29.495048 -4.431820 -3.183910 -4.727320 4.740969 -11.395921 8.332994 -9.338463 12.087048 -1.787466 11.010306 -3.223994 -0.926010 -4.605541 2.397662 0.575870 0.444590 -0.090890 0.287990 -8.655090 13.681402 9.984212 32.754118 18.648871 -10.142117 -18.221983 77.339459 -19.757303 1.490392 -1.446592 -0.325180 0.222130 0.174660 -0.030640 
5.877580 17.199980 -2.931770 0.954599 20.292231 -2.315237 -14.857507 12.259427 2.828489 0.850527 -0.488320 -7.477361 -12.212790 8.889738 20.168112 -0.297529 5.802624 2.846773 0.107870 -0.324670 0.039970 18.525372 -11.632646 3.624353 -0.136899 0.849358 -9.037450 10.452717 -4.308843 0.172879 -0.333180 -3.881961 3.131655 -0.110680 0.762800 0.587950 -4.941112 1.965055 -8.170007 17.999293 -0.880344 19.541932 -4.469510 1.519039 8.593330 0.992241 4.093523 -15.264261 9.164978 -4.288820 29.374014 -4.662090 -2.143240 -4.335970 4.982312 -10.116218 7.648339 -9.945087 11.606523 -1.941982 10.713556 -3.030030 -0.913761 -4.636488 2.371406 0.563400 0.461850 -0.100030 0.293080 -8.727655 12.639890 9.946689 33.383163 17.997240 -10.026932 -22.819555 76.434106 -22.216852 1.469392 -1.351994 -0.334550 0.228040 0.175480 -0.026350 
5.813810 17.237370 -2.951540 0.201620 18.678756 -1.465710 -14.833270 12.290987 2.806067 0.514331 -0.534162 -7.598938 -10.646652 7.708803 17.710579 -0.383381 5.276280 3.049806 0.102340 -0.323630 0.035740 18.539124 -11.613795 3.672762 -0.848987 0.971422 -9.649602 10.202335 -4.010893 -1.205710 -0.314946 -3.849642 3.147281 -0.111670 0.780650 0.594340 -4.943618 1.915784 -8.160634 18.318673 -1.083180 18.978570 -4.665091 1.329834 7.471858 0.981313 3.844852 -14.934718 8.642870 -3.154144 28.984864 -4.929860 -0.935350 -3.601780 5.274504 -8.830796 7.035059 -10.374231 11.442498 -2.096955 10.858320 -2.776296 -0.868636 -4.674337 2.380633 0.534970 0.484280 -0.110900 0.301830 -9.178749 11.568490 9.920800 34.105044 17.756720 -9.536904 -26.206400 74.964208 -23.459516 1.456034 -1.311608 -0.330220 0.216470 0.165110 -0.017050 
5.758560 17.258250 -2.969490 -1.235481 17.311261 -0.375809 -14.782026 12.308240 2.780177 0.773784 -0.657950 -8.088806 -9.192926 6.541865 14.779568 -0.482311 4.773467 3.255638 0.113890 -0.317140 0.046540 18.583304 -11.603684 3.704643 -0.916877 1.224466 -10.701467 9.654072 -3.728976 -1.977352 -0.284830 -3.761416 3.185688 -0.102340 0.805000 0.600830 -5.038418 1.907779 -8.129997 20.093259 -1.572941 17.650165 -5.504823 1.019568 6.251460 1.062771 3.407836 -14.374557 7.694118 -2.126483 28.342973 -5.288110 0.075470 -2.940050 5.637107 -7.144870 6.180207 -10.774459 10.707935 -2.214319 10.980694 -2.712521 -0.843481 -4.703172 2.397887 0.513860 0.510210 -0.127120 0.322390 -9.915015 10.112654 9.887435 35.267237 17.390732 -8.778982 -28.890639 73.567157 -24.105823 1.430599 -1.304747 -0.335440 0.213180 0.144210 -0.013260 
